# xmcd CD database file
# Copyright (C) 1997 Ti Kan
# 
# Track frame offsets:
#     150
#     11787
#     27162
#     40805
#     53712
#     70355
#     83112
#     98187
#     114537
#     126387
#     136737
#     148505
#     165762
#     177537
#     190212
#     202587
#     225162
#     237537
#     250137
#     267087
#     279237
#     290787
# 
# Disc length: 4105 seconds
# 
# Revision: 1
# Processed by: cddbd v1.4b41PL1 Copyright (c) Steve Scherf et al.
# Submitted via: DiscPlay 4.0.4
# 
DISCID=30100716
DTITLE=RAY PRICE - THE VERY BEST OF RAY PRICE
DYEAR=1900
DGENRE=
TTITLE0=CRAZY ARMS
TTITLE1=FOUR WALLS
TTITLE2=CITY LIGHTS
TTITLE3=FADED LOVE
TTITLE4=I WON'T MENTION IT AGAIN
TTITLE5=INVITATION TO THE BLUES
TTITLE6=SAN ANTONIO ROSE
TTITLE7=RELEASE ME
TTITLE8=HEARTACHES BY THE NUMBER
TTITLE9=BORN TO LOSE
TTITLE10=PRIDE
TTITLE11=YOU'RE THE BEST THING THAT EVER HAPPENED TO ME
TTITLE12=MY SHOES KEEP WALKING BACK TO YOU
TTITLE13=I'D RATHER BE SORRY
TTITLE14=I'VE GOT A NEW HEARTACHE
TTITLE15=DANNY BOY
TTITLE16=THE SAME OLD ME
TTITLE17=ONE MORE TIME
TTITLE18=COLD, COLD HEART
TTITLE19=I CAN'T HELP IT
TTITLE20=MAKE THE WORLD GO AWAY
TTITLE21=FOR THE GOOD TIMES
EXTD=
EXTT0=
EXTT1=
EXTT2=
EXTT3=
EXTT4=
EXTT5=
EXTT6=
EXTT7=
EXTT8=
EXTT9=
EXTT10=
EXTT11=
EXTT12=
EXTT13=
EXTT14=
EXTT15=
EXTT16=
EXTT17=
EXTT18=
EXTT19=
EXTT20=
EXTT21=
PLAYORDER=
